<?xml version="1.0"?>
<svg xmlns="http://www.w3.org/2000/svg" id="Layer_1" data-name="Layer 1" viewBox="0 0 64 64"><title>Icons8 RSL Colored Part 12</title><path d="M25.52,45.75a9.63,9.63,0,0,1-2.51,9c-4.38,4.38-8.9,5.53-19.73,3.49,6.86-6.86-.56-11.6,5.53-17.69a9.62,9.62,0,0,1,9-2.52" style="fill:#f9e3ae;"/><path d="M58.07,10.16,35.54,36.54l-.28.33-8.48-8.48L53.49,5.59a3.25,3.25,0,0,1,4.58,4.57Z" style="fill:#cda1a7;"/><path d="M18,43.44s-6.61,4.33-11.72,5.09c0,0-1.78-4.28,2.85-8.22S16.59,38,16.59,38l3.48,3.94Z" style="fill:#faefde;"/><path d="M58.07,10.16,35.54,36.54,31,32,57.54,5.46a3.23,3.23,0,0,1,.53,4.7Z" style="fill:#c4939c;"/><path d="M25.52,45.75l-7.69-7.68a10,10,0,0,0-2.52-.25l5.94,3.93c.74,3.18-.73,5.23-2.69,8-3.24,4.65-7.07,8-14.2,7.28a14.11,14.11,0,0,1-1.08,1.2c10.83,2,15.36.89,19.73-3.49A9.63,9.63,0,0,0,25.52,45.75Z" style="fill:#f6d397;"/><path d="M35,40.39l-1.61,2-3,3.72L17.59,33.34l3.71-3,2-1.61a3,3,0,0,1,4,.2l7.48,7.48A3,3,0,0,1,35,40.39Z" style="fill:#acb7d0;"/><rect x="20.54" y="31.12" width="4" height="20" rx="2" ry="2" transform="translate(-22.47 27.98) rotate(-45)" style="fill:#acb7d0;"/><path d="M35,40.39h0a2.3,2.3,0,0,1-3.4.17l-8.47-8.47a2.3,2.3,0,0,1,.17-3.4h0a3,3,0,0,1,4,.2l7.48,7.48A3,3,0,0,1,35,40.39Z" style="fill:#c2cde7;"/><path d="M58.6,5.05a4.27,4.27,0,0,0-5.76-.23L26.54,27.27a4,4,0,0,0-3.91.65l-5.57,4.56a3,3,0,0,0-2.82,4.4,10.49,10.49,0,0,0-6.14,3c-3.29,3.28-3,6.37-2.79,9.09s.46,5.39-2.74,8.6a1,1,0,0,0-.25,1,1,1,0,0,0,.77.69,48.74,48.74,0,0,0,8.87,1,15.06,15.06,0,0,0,11.76-4.77,10.48,10.48,0,0,0,3-6.11,3,3,0,0,0,1.48.39,3,3,0,0,0,3-3c0-.06,0-.12,0-.17L35.73,41a4,4,0,0,0,.65-3.92L58.83,10.81A4.27,4.27,0,0,0,58.6,5.05Zm-36.3,49c-3.64,3.65-7.24,5.15-17.09,3.52,2.57-3.29,2.32-6.19,2.09-8.8s-.41-4.88,2.21-7.51A8.48,8.48,0,0,1,16,38.82l2.8,2.8-2.44,1.46a1,1,0,0,0,1,1.71l2.87-1.72.35.35-2.51,5a1,1,0,0,0,1.79.89l2.21-4.42,2.68,2.68A8.56,8.56,0,0,1,22.3,54.08Zm6.6-6.6a1,1,0,0,1-1.41,0l-.78-.78-1.77-1.77-6.29-6.28-1.77-1.77-.71-.71a1,1,0,0,1,0-1.42,1,1,0,0,1,1.41,0l5.74,5.74,5.59,5.59a1,1,0,0,1,.29.7A1,1,0,0,1,28.9,47.48Zm5.29-7.72-3.94,4.82L19.07,33.41l4.82-3.94a2,2,0,0,1,2.68.13l7.47,7.47A2,2,0,0,1,34.19,39.76ZM57.3,9.51,35.21,35.4l-7-7L54.14,6.35A2.25,2.25,0,0,1,57.3,9.51Z" style="fill:#8d6c9f;"/><path d="M24,31.22l-1.41,1.41A1,1,0,1,0,24,34l1.41-1.41A1,1,0,1,0,24,31.22Z" style="fill:#8d6c9f;"/><path d="M27.49,34.75l-1.41,1.41a1,1,0,1,0,1.41,1.41l1.41-1.41a1,1,0,0,0-1.41-1.41Z" style="fill:#8d6c9f;"/><path d="M31,38.29,29.61,39.7A1,1,0,1,0,31,41.12l1.41-1.41A1,1,0,0,0,31,38.29Z" style="fill:#8d6c9f;"/></svg>
