<?xml version="1.0" encoding="iso-8859-1"?>
<!-- Generator: Adobe Illustrator 19.0.0, SVG Export Plug-In . SVG Version: 6.00 Build 0)  -->
<svg version="1.1" id="Layer_1" xmlns="http://www.w3.org/2000/svg" xmlns:xlink="http://www.w3.org/1999/xlink" x="0px" y="0px"
	 viewBox="0 0 496.2 496.2" style="enable-background:new 0 0 496.2 496.2;" xml:space="preserve">
<path style="fill:#25B7D3;" d="M496.2,248.1C496.2,111.1,385.1,0,248.1,0S0,111.1,0,248.1s111.1,248.1,248.1,248.1
	S496.2,385.1,496.2,248.1z"/>
<g>
	<path style="fill:#444443;" d="M239.1,218.6V496c3,0.1,6,0.2,9,0.2s6-0.1,9-0.2V218.6H239.1z"/>
	<rect x="234.7" y="314.8" style="fill:#444443;" width="26.8" height="41.8"/>
	<path style="fill:#444443;" d="M383.9,319.3c0,6.6-5.4,12-12,12H124.3c-6.6,0-12-5.4-12-12V147.5c0-6.6,5.4-12,12-12H372
		c6.6,0,12,5.4,12,12v171.8H383.9z"/>
</g>
<rect x="127.1" y="147.6" style="fill:#FFFFFF;" width="242" height="171.6"/>
<rect x="246.7" y="147.6" style="fill:#353534;" width="2.8" height="182.6"/>
<polygon style="fill:#444443;" points="386.3,331.3 109.9,331.3 101.3,301.6 394.9,301.6 "/>
<g>
	<path style="fill:#828281;" d="M232.7,171.3h-93.5c-0.9,0-1.7-0.7-1.7-1.6c0-0.9,0.7-1.7,1.7-1.7h93.5c0.9,0,1.7,0.7,1.7,1.7
		C234.4,170.5,233.6,171.3,232.7,171.3z"/>
	<path style="fill:#828281;" d="M232.7,188.3h-93.5c-0.9,0-1.7-0.7-1.7-1.6c0-0.9,0.7-1.7,1.7-1.7h93.5c0.9,0,1.7,0.7,1.7,1.7
		C234.4,187.6,233.6,188.3,232.7,188.3z"/>
	<path style="fill:#828281;" d="M232.7,205.4h-93.5c-0.9,0-1.7-0.7-1.7-1.6c0-0.9,0.7-1.7,1.7-1.7h93.5c0.9,0,1.7,0.7,1.7,1.7
		C234.4,204.6,233.6,205.4,232.7,205.4z"/>
	<path style="fill:#828281;" d="M232.7,222.4h-93.5c-0.9,0-1.7-0.7-1.7-1.7c0-0.9,0.7-1.6,1.7-1.6h93.5c0.9,0,1.7,0.7,1.7,1.6
		C234.4,221.7,233.6,222.4,232.7,222.4z"/>
	<path style="fill:#828281;" d="M232.7,239.5h-93.5c-0.9,0-1.7-0.7-1.7-1.6s0.7-1.6,1.7-1.6h93.5c0.9,0,1.7,0.7,1.7,1.6
		S233.6,239.5,232.7,239.5z"/>
	<path style="fill:#828281;" d="M232.7,256.5h-93.5c-0.9,0-1.7-0.7-1.7-1.6s0.7-1.7,1.7-1.7h93.5c0.9,0,1.7,0.7,1.7,1.7
		C234.4,255.8,233.6,256.5,232.7,256.5z"/>
	<path style="fill:#828281;" d="M232.7,273.6h-93.5c-0.9,0-1.7-0.7-1.7-1.7c0-0.9,0.7-1.6,1.7-1.6h93.5c0.9,0,1.7,0.7,1.7,1.6
		C234.4,272.8,233.6,273.6,232.7,273.6z"/>
	<path style="fill:#828281;" d="M232.7,290.6h-93.5c-0.9,0-1.7-0.7-1.7-1.7s0.7-1.6,1.7-1.6h93.5c0.9,0,1.7,0.7,1.7,1.6
		S233.6,290.6,232.7,290.6z"/>
	<path style="fill:#828281;" d="M357,171.3h-93.5c-0.9,0-1.7-0.7-1.7-1.6c0-0.9,0.7-1.7,1.7-1.7H357c0.9,0,1.7,0.7,1.7,1.7
		C358.6,170.5,357.9,171.3,357,171.3z"/>
	<path style="fill:#828281;" d="M357,188.3h-93.5c-0.9,0-1.7-0.7-1.7-1.6c0-0.9,0.7-1.7,1.7-1.7H357c0.9,0,1.7,0.7,1.7,1.7
		C358.6,187.6,357.9,188.3,357,188.3z"/>
	<path style="fill:#828281;" d="M357,205.4h-93.5c-0.9,0-1.7-0.7-1.7-1.6c0-0.9,0.7-1.7,1.7-1.7H357c0.9,0,1.7,0.7,1.7,1.7
		C358.6,204.6,357.9,205.4,357,205.4z"/>
	<path style="fill:#828281;" d="M357,222.4h-93.5c-0.9,0-1.7-0.7-1.7-1.7c0-0.9,0.7-1.6,1.7-1.6H357c0.9,0,1.7,0.7,1.7,1.6
		C358.6,221.7,357.9,222.4,357,222.4z"/>
	<path style="fill:#828281;" d="M357,239.5h-93.5c-0.9,0-1.7-0.7-1.7-1.6s0.7-1.6,1.7-1.6H357c0.9,0,1.7,0.7,1.7,1.6
		S357.9,239.5,357,239.5z"/>
	<path style="fill:#828281;" d="M357,256.5h-93.5c-0.9,0-1.7-0.7-1.7-1.6s0.7-1.7,1.7-1.7H357c0.9,0,1.7,0.7,1.7,1.7
		C358.6,255.8,357.9,256.5,357,256.5z"/>
</g>
<g>
	<path style="fill:#3A3A38;" d="M157.6,155.4c0-0.3-0.2-0.5-0.5-0.5s-0.5,0.2-0.5,0.5v12.9c-0.7-0.5-1.8-0.8-3-0.8
		c-2.2,0-4,1.1-4,2.3s1.8,2.3,4,2.3c2.1,0,3.9-1,4-2.2v-0.1V155.4z"/>
	<path style="fill:#3A3A38;" d="M202.6,155.4c0-0.3-0.2-0.5-0.5-0.5s-0.5,0.2-0.5,0.5v12.9c-0.7-0.5-1.8-0.8-3-0.8
		c-2.2,0-4,1.1-4,2.3s1.8,2.3,4,2.3c2.1,0,3.9-1,4-2.2v-0.1V155.4z"/>
	<path style="fill:#3A3A38;" d="M219.6,155.4c0-0.3-0.2-0.5-0.5-0.5s-0.5,0.2-0.5,0.5v12.9c-0.7-0.5-1.8-0.8-3-0.8
		c-2.2,0-4,1.1-4,2.3s1.8,2.3,4,2.3c2.1,0,3.9-1,4-2.2v-0.1V155.4z"/>
	<path style="fill:#3A3A38;" d="M178.3,172.1c0-0.3-0.2-0.5-0.5-0.5s-0.5,0.2-0.5,0.5V185c-0.7-0.5-1.8-0.8-3-0.8
		c-2.2,0-4,1.1-4,2.3c0,1.3,1.8,2.4,4,2.4c2.1,0,3.9-1,4-2.2v-0.1V172.1z"/>
	<path style="fill:#3A3A38;" d="M209.8,188.8c0-0.3-0.2-0.5-0.5-0.5s-0.5,0.2-0.5,0.5v12.9c-0.7-0.5-1.8-0.8-3-0.8
		c-2.2,0-4,1.1-4,2.3c0,1.3,1.8,2.4,4,2.4c2.1,0,3.9-1,4-2.2v-0.1V188.8z"/>
	<path style="fill:#3A3A38;" d="M160.3,188.8c0-0.3-0.2-0.5-0.5-0.5s-0.5,0.2-0.5,0.5v12.9c-0.7-0.5-1.8-0.8-3-0.8
		c-2.2,0-4,1.1-4,2.3c0,1.3,1.8,2.4,4,2.4c2.1,0,3.9-1,4-2.2v-0.1V188.8z"/>
	<path style="fill:#3A3A38;" d="M157.6,223.5c0-0.3-0.2-0.5-0.5-0.5s-0.5,0.2-0.5,0.5v12.9c-0.7-0.5-1.8-0.8-3-0.8
		c-2.2,0-4,1.1-4,2.4s1.8,2.4,4,2.4c2.1,0,3.9-1,4-2.2v-0.1V223.5z"/>
	<path style="fill:#3A3A38;" d="M202.6,223.5c0-0.3-0.2-0.5-0.5-0.5s-0.5,0.2-0.5,0.5v12.9c-0.7-0.5-1.8-0.8-3-0.8
		c-2.2,0-4,1.1-4,2.4s1.8,2.4,4,2.4c2.1,0,3.9-1,4-2.2v-0.1V223.5z"/>
	<path style="fill:#3A3A38;" d="M219.6,223.5c0-0.3-0.2-0.5-0.5-0.5s-0.5,0.2-0.5,0.5v12.9c-0.7-0.5-1.8-0.8-3-0.8
		c-2.2,0-4,1.1-4,2.4s1.8,2.4,4,2.4c2.1,0,3.9-1,4-2.2v-0.1V223.5z"/>
	<path style="fill:#3A3A38;" d="M178.3,240.3c0-0.3-0.2-0.5-0.5-0.5s-0.5,0.2-0.5,0.5v12.9c-0.7-0.5-1.8-0.8-3-0.8
		c-2.2,0-4,1.1-4,2.3c0,1.3,1.8,2.4,4,2.4c2.1,0,3.9-1,4-2.2v-0.1V240.3z"/>
	<path style="fill:#3A3A38;" d="M209.8,257c0-0.3-0.2-0.5-0.5-0.5s-0.5,0.2-0.5,0.5v12.9c-0.7-0.5-1.8-0.8-3-0.8c-2.2,0-4,1.1-4,2.4
		s1.8,2.4,4,2.4c2.1,0,3.9-1,4-2.2v-0.1V257z"/>
	<path style="fill:#3A3A38;" d="M160.3,257c0-0.3-0.2-0.5-0.5-0.5s-0.5,0.2-0.5,0.5v12.9c-0.7-0.5-1.8-0.8-3-0.8c-2.2,0-4,1.1-4,2.4
		s1.8,2.4,4,2.4c2.1,0,3.9-1,4-2.2v-0.1V257z"/>
	<path style="fill:#3A3A38;" d="M232.1,274.9c0-0.3-0.2-0.5-0.5-0.5s-0.5,0.2-0.5,0.5v12.9c-0.7-0.5-1.8-0.8-3-0.8
		c-2.2,0-4,1.1-4,2.3c0,1.3,1.8,2.4,4,2.4c2.1,0,3.9-1,4-2.2v-0.1V274.9z"/>
	<path style="fill:#3A3A38;" d="M183.4,206.4c0-0.3-0.2-0.5-0.5-0.5s-0.5,0.2-0.5,0.5v12.9c-0.7-0.5-1.8-0.8-3-0.8
		c-2.2,0-4,1.1-4,2.3c0,1.3,1.8,2.4,4,2.4c2.1,0,3.9-1,4-2.2v-0.1V206.4z"/>
	<path style="fill:#3A3A38;" d="M278.9,240.4c0-0.3-0.2-0.5-0.5-0.5s-0.5,0.2-0.5,0.5v12.9c-0.7-0.5-1.8-0.8-3-0.8
		c-2.2,0-4,1.1-4,2.4s1.8,2.3,4,2.3c2.1,0,3.9-1,4-2.2v-0.1V240.4z"/>
	<path style="fill:#3A3A38;" d="M288.4,172.2c0-0.3-0.2-0.5-0.5-0.5s-0.5,0.2-0.5,0.5v12.9c-0.7-0.5-1.8-0.8-3-0.8
		c-2.2,0-4,1.1-4,2.4c0,1.3,1.8,2.3,4,2.3c2.1,0,3.9-1,4-2.2v-0.1V172.2z"/>
	<path style="fill:#3A3A38;" d="M305.4,172.2c0-0.3-0.2-0.5-0.5-0.5s-0.5,0.2-0.5,0.5v12.9c-0.7-0.5-1.8-0.8-3-0.8
		c-2.2,0-4,1.1-4,2.4c0,1.3,1.8,2.3,4,2.3c2.1,0,3.9-1,4-2.2v-0.1V172.2z"/>
	<path style="fill:#3A3A38;" d="M326.6,188.9c0-0.3-0.2-0.5-0.5-0.5s-0.5,0.2-0.5,0.5v12.9c-0.7-0.5-1.8-0.8-3-0.8
		c-2.2,0-4,1.1-4,2.3c0,1.3,1.8,2.4,4,2.4c2.1,0,3.9-1,4-2.2v-0.1V188.9z"/>
	<path style="fill:#3A3A38;" d="M347,205.6c0-0.3-0.2-0.5-0.5-0.5s-0.5,0.2-0.5,0.5v12.9c-0.7-0.5-1.8-0.8-3-0.8c-2.2,0-4,1.1-4,2.3
		c0,1.3,1.8,2.4,4,2.4c2.1,0,3.9-1,4-2.2v-0.1V205.6z"/>
	<path style="fill:#3A3A38;" d="M302.7,205.6c0-0.3-0.2-0.5-0.5-0.5s-0.5,0.2-0.5,0.5v12.9c-0.7-0.5-1.8-0.8-3-0.8
		c-2.2,0-4,1.1-4,2.3c0,1.3,1.8,2.4,4,2.4c2.1,0,3.9-1,4-2.2v-0.1V205.6z"/>
	<path style="fill:#3A3A38;" d="M329.1,223.5c0-0.3-0.2-0.5-0.5-0.5s-0.5,0.2-0.5,0.5v12.9c-0.7-0.5-1.8-0.8-3-0.8
		c-2.2,0-4,1.1-4,2.3c0,1.3,1.8,2.4,4,2.4c2.1,0,3.9-1,4-2.2V238V223.5z"/>
</g>
<g>
</g>
<g>
</g>
<g>
</g>
<g>
</g>
<g>
</g>
<g>
</g>
<g>
</g>
<g>
</g>
<g>
</g>
<g>
</g>
<g>
</g>
<g>
</g>
<g>
</g>
<g>
</g>
<g>
</g>
</svg>
